<mxfile host="app.diagrams.net" modified="2023-08-09T06:44:03.608Z" agent="Mozilla/5.0 (X11; Linux x86_64) AppleWebKit/537.36 (KHTML, like Gecko) Chrome/114.0.0.0 Safari/537.36" version="21.6.6" etag="KGXNV4ioe-q7qPXjxzns" type="github">
  <diagram name="Page-1" id="zKLuLcW5GbtrUlBjLjGT">
    <mxGraphModel>
      <root>
        <mxCell id="0" />
        <mxCell id="1" parent="0" />
      </root>
    </mxGraphModel>
  </diagram>
</mxfile>
